# xmcd CD database file
#
# Track frame offsets:
#	150
#	23077
#	45555
#	68567
#
# Disc length: 1209 seconds
#
# Revision: 1
# Processed by: cddbd v1.5PL3 Copyright (c) Steve Scherf et al.
# Submitted via: CDex 1.51
#
DISCID=2704b704
DTITLE=北野井子 - Begin
DYEAR=1998
DGENRE=JPop
TTITLE0=Begin
TTITLE1=I Believe
TTITLE2=Begin [Instrumental]
TTITLE3=I Believe [Instrumental]
EXTD=YEAR: 1998
EXTT0=
EXTT1=
EXTT2=
EXTT3=
PLAYORDER=
